<svg version="1.0" xmlns="http://www.w3.org/2000/svg" width="8000.000000pt" height="8000.000000pt" viewBox="0 0 8000.000000 8000.000000" preserveAspectRatio="xMidYMid meet" style="color: beige;animation: ;">

<g transform="translate(0.000000,8000.000000) scale(0.100000,-0.100000)" fill="#000000" stroke="none">
<path d="M25830 72090 c-223 -7 -389 -15 -510 -25 -30 -2 -93 -7 -140 -10 -722 -52 -1578 -192 -2355 -386 -2149 -537 -4273 -1605 -5995 -3013 -1580 -1292 -2888 -2894 -3899 -4776 -108 -201 -363 -715 -464 -935 -500 -1094 -828 -2054 -1167 -3417 -290 -1165 -525 -2491 -635 -3573 -8 -82 -17 -166 -20 -185 -4 -32 -38 -396 -50 -545 -2 -33 -9 -114 -14 -180 -6 -66 -15 -196 -21 -290 -5 -93 -12 -199 -15 -235 -2 -36 -7 -139 -11 -230 -4 -91 -8 -167 -9 -170 -2 -3 -7 -145 -12 -315 -15 -564 -8 -1872 12 -2145 2 -30 6 -120 10 -200 3 -80 7 -176 10 -215 2 -38 7 -115 10 -170 3 -55 8 -122 10 -150 2 -27 7 -90 10 -140 3 -49 8 -112 10 -140 2 -27 7 -86 10 -130 10 -138 64 -704 80 -840 8 -71 22 -191 30 -265 257 -2253 848 -4754 1640 -6945 662 -1829 1531 -3650 2565 -5375 1925 -3211 4471 -6217 7440 -8781 1308 -1129 2331 -1920 3410 -2634 1960 -1297 3785 -2108 5745 -2551 192 -44 221 -48 340 -48 115 0 139 3 203 26 101 36 172 81 250 160 126 126 190 270 199 448 6 120 -9 201 -55 302 -59 129 -236 324 -866 954 -950 948 -1598 1535 -3541 3199 -1462 1253 -2010 1734 -2650 2329 -2561 2379 -4687 5072 -6299 7979 -315 568 -741 1401 -944 1847 -11 25 -39 86 -62 135 -86 185 -325 727 -407 925 -934 2239 -1550 4452 -1888 6780 -51 347 -118 899 -145 1180 -5 63 -13 138 -15 165 -11 115 -35 396 -40 480 -3 50 -8 104 -10 120 -2 17 -7 93 -10 170 -3 77 -8 149 -10 160 -2 11 -7 99 -10 195 -4 96 -8 185 -10 196 -25 163 -25 2054 -1 2314 2 19 7 100 11 180 24 536 105 1471 170 1970 2 19 18 143 35 275 58 448 90 660 171 1123 483 2760 1431 4980 2859 6697 387 465 839 916 1330 1326 1230 1025 2704 1781 4210 2159 544 137 1178 237 1675 265 61 4 130 8 155 10 56 5 719 5 780 0 25 -2 97 -6 160 -9 266 -15 671 -55 960 -97 2564 -366 5173 -1542 6965 -3138 169 -150 597 -579 801 -801 1069 -1166 2185 -2682 2871 -3901 158 -281 169 -301 296 -554 156 -311 226 -400 377 -479 101 -53 176 -69 305 -64 90 4 126 10 198 35 126 44 235 113 336 213 84 83 114 123 446 610 457 670 618 885 933 1252 587 683 1244 1318 1962 1893 2469 1979 5555 3177 8665 3365 329 19 470 23 860 23 391 0 541 -4 855 -23 197 -13 503 -38 600 -50 41 -5 104 -12 140 -15 159 -15 625 -88 835 -130 1112 -224 2213 -637 3225 -1210 559 -317 1144 -721 1625 -1124 464 -389 974 -899 1345 -1346 1042 -1256 1726 -2673 2049 -4245 77 -376 143 -847 167 -1183 3 -45 7 -95 9 -112 10 -73 20 -476 19 -770 -2 -362 -37 -1053 -69 -1330 -2 -22 -9 -87 -15 -145 -34 -331 -60 -537 -106 -840 -425 -2783 -1523 -5603 -3357 -8620 -689 -1134 -1592 -2446 -2496 -3625 -1635 -2135 -3502 -4264 -6155 -7020 -640 -664 -852 -881 -2661 -2720 -1703 -1731 -1650 -1677 -2220 -2264 -554 -570 -846 -868 -2020 -2057 -2871 -2909 -4229 -4368 -5640 -6064 -3245 -3899 -5113 -7392 -5821 -10885 -87 -428 -184 -1041 -184 -1160 0 -97 26 -209 70 -300 167 -346 635 -459 955 -230 84 59 107 89 336 415 1622 2319 3617 4648 6629 7736 151 155 524 538 829 850 1062 1090 2407 2428 3466 3449 1164 1123 2294 2187 4665 4395 3844 3579 4989 4675 6840 6545 2332 2357 4139 4383 5676 6365 1978 2552 3504 5036 4636 7550 798 1770 1342 3415 1728 5218 187 877 345 1927 405 2692 3 41 8 91 10 110 2 19 7 82 10 140 4 58 8 121 10 140 2 19 7 94 10 165 4 72 8 147 10 168 2 20 9 191 16 380 11 316 7 1206 -6 1432 -3 44 -10 163 -15 265 -23 416 -84 1033 -136 1380 -411 2746 -1597 5335 -3415 7455 -275 322 -434 491 -808 866 -366 366 -584 569 -901 839 -2061 1759 -4571 2984 -7210 3519 -487 98 -1014 178 -1490 226 -30 3 -71 8 -90 10 -62 8 -496 39 -690 50 -558 29 -1291 25 -1750 -10 -30 -2 -98 -7 -150 -10 -315 -20 -747 -66 -1130 -121 -2257 -320 -4461 -1121 -6377 -2317 -2319 -1447 -4137 -3412 -5258 -5682 -129 -263 -247 -521 -325 -712 -30 -73 -57 -130 -60 -125 -4 4 -40 102 -80 217 -482 1390 -1107 2700 -1828 3835 -1067 1678 -2323 3014 -3877 4127 -398 284 -992 658 -1380 868 -49 27 -130 71 -180 98 -328 177 -912 449 -1315 612 -1077 435 -2290 744 -3350 855 -58 6 -121 13 -140 15 -104 13 -345 31 -660 49 -168 10 -810 14 -1040 6z"/>
</g>
</svg>